<?xml version="1.0" standalone="no"?><!DOCTYPE svg PUBLIC "-//W3C//DTD SVG 1.1//EN" "http://www.w3.org/Graphics/SVG/1.1/DTD/svg11.dtd"><svg t="1546239206365" class="icon" style="" viewBox="0 0 1024 1024" version="1.1" xmlns="http://www.w3.org/2000/svg" p-id="1468" xmlns:xlink="http://www.w3.org/1999/xlink" width="200" height="200"><defs><style type="text/css"></style></defs><path d="M907 378.05l-12.4-14.33c-61-70.41-166.93-177.81-236.2-239.4l-14.12-12.58C609.07 80.37 562.07 63.09 512 63.09s-97.08 17.28-132.32 48.65l-14.12 12.57c-69.28 61.61-175.24 169-236.2 239.41l-12.41 14.33c-63.92 73.87-63.92 194 0 267.87l12.41 14.33C190.24 730.6 296.2 838 365.54 899.69l14.14 12.57c35.24 31.37 82.23 48.65 132.32 48.65s97.06-17.28 132.32-48.65l14.13-12.57 8.15-7.25c21.93-19.46 31.93-28.35 62.69-58.93l7.27-7.36-1.16-1.22a28.35 28.35 0 0 0-45.87-32.14c-2.92 2.78-43.63 41.53-68.73 63.91l-14.1 12.56c-24.89 22.1-58.53 34.28-94.7 34.28s-69.82-12.19-94.69-34.31l-14.14-12.58c-67.85-60.34-171.47-165.38-231-234.14l-12.4-14.32c-21.73-25.12-33.7-59.29-33.7-96.2s12-71.07 33.7-96.17l12.41-14.33c59.5-68.75 163.12-173.79 231-234.15l14.1-12.57c24.86-22.12 58.49-34.31 94.68-34.31s69.83 12.19 94.7 34.3l14.12 12.58c67.86 60.37 171.49 165.41 231 234.14l12.39 14.34c45.22 52.21 45.34 143.76 0.26 192.07l-7.15 7.69c-20.35 21.94-32.64 35.19-45.62 39.1-12.3 3.71-27.89-0.23-57.53-14.54-49.55-23.94-119.64-64-144-78 9.87-19.61 32.46-67.6 43.11-115.62l2.86-12.87H534.5v-15.06h154.78v-57.37H534.5v-72.41h-56.89v72.41H322.83v57.37h154.78v15.05H358.54V491H573c-4.63 14.52-13.16 32.57-19.19 44.37-22.13-8.73-80.75-29.33-141-29.33-37.94 0-69.92 10.28-92.49 29.71-22.37 19.27-34.19 46-34.19 77.42s11.32 58.29 32.75 77.74c21.9 19.89 53 30.41 90 30.41 42.76 0 87.09-19 128.18-54.78a326.76 326.76 0 0 0 43.61-46.35c22.9 12.75 90 50 152.61 83.47 40.83 21.85 69.5 26.18 95.87 14.47 25.09-11.14 47.07-36.53 77.49-71.68l0.47-0.54C971 572.07 971 451.9 907 378.05zM407.83 662c-60.15 0-64.83-37.38-64.83-48.82a48.21 48.21 0 0 1 12.15-31.36c11.06-12.2 28.45-18.39 51.69-18.39 50 0 95 17.21 115.39 26.35C503.71 611.69 456 662 407.83 662z" p-id="1469"></path></svg>