<?xml version="1.0" standalone="no"?><!DOCTYPE svg PUBLIC "-//W3C//DTD SVG 1.1//EN" "http://www.w3.org/Graphics/SVG/1.1/DTD/svg11.dtd"><svg t="1545959978831" class="icon" style="" viewBox="0 0 1024 1024" version="1.1" xmlns="http://www.w3.org/2000/svg" p-id="654" xmlns:xlink="http://www.w3.org/1999/xlink" width="200" height="200"><defs><style type="text/css"></style></defs><path d="M877.297288 553.796942L553.79643 877.298823c-54.370305 54.369282-126.656655 84.311221-203.547883 84.312245-76.890204-0.001023-149.177578-29.942963-203.546859-84.312245S62.389444 750.641145 62.389444 673.750941c0-76.890204 29.942963-149.177578 84.312244-203.547883l135.442762-135.441738c75.829036-75.829036 199.213157-75.829036 275.043217 0s75.830059 199.214181 0 275.043217L399.320173 767.674077c-17.620309 17.620309-46.188972 17.620309-63.809281 0-17.620309-17.621333-17.620309-46.188972 0-63.809281l157.867493-157.867494c40.645722-40.645722 40.645722-106.779955 0-147.424654-40.644699-40.645722-106.778932-40.645722-147.424654 0L210.51097 534.01234c-77.051887 77.05291-77.051887 202.423269 0 279.476179 77.051887 77.051887 202.423269 77.051887 279.475155 0l323.501882-323.501882c77.051887-77.050864 77.051887-202.423269 0-279.475156-77.05291-77.051887-202.424292-77.050864-279.476179 0-17.619286 17.620309-46.188972 17.620309-63.809281 0s-17.619286-46.189995 0-63.809281c54.369282-54.369282 126.657678-84.313268 203.546859-84.312244 76.892251 0 149.178601 29.942963 203.548906 84.312244 54.369282 54.369282 84.311221 126.656655 84.311221 203.547882 0 76.889181-29.942963 149.176554-84.312245 203.54686z" fill="" p-id="655"></path></svg>