<?xml version="1.0" standalone="no"?><!DOCTYPE svg PUBLIC "-//W3C//DTD SVG 1.1//EN" "http://www.w3.org/Graphics/SVG/1.1/DTD/svg11.dtd"><svg t="1553935012815" class="icon" style="" viewBox="0 0 1024 1024" version="1.1" xmlns="http://www.w3.org/2000/svg" p-id="5330" xmlns:xlink="http://www.w3.org/1999/xlink" width="200" height="200"><defs><style type="text/css"></style></defs><path d="M453.22752 781.67168 170.31936 781.67168 170.31936 409.18016l650.45632 0c11.6864 0 21.15968-9.47328 21.15968-21.15968L841.93536 218.68032l0-12.3904c0-11.6864-9.47328-21.15968-21.15968-21.15968l-11.8784 0L660.94464 185.13024l0-35.97184c0-11.6864-9.47328-21.15968-21.15968-21.15968-11.68768 0-21.15968 9.47328-21.15968 21.15968l0 35.97184L356.24704 185.13024l0-35.97184c0-11.6864-9.47328-21.15968-21.15968-21.15968s-21.15968 9.47328-21.15968 21.15968l0 35.97184L161.04064 185.13024l-11.88096 0c-11.6864 0-21.15968 9.47328-21.15968 21.15968l0 12.3904 0 169.34144 0 402.4192c0 18.49984 14.8224 33.55008 33.04064 33.55008l292.18816 0c11.6864 0 21.15968-9.472 21.15968-21.15968C474.38848 791.14496 464.91392 781.67168 453.22752 781.67168zM170.31936 227.4496l143.60832 0 0 35.97184c0 11.6864 9.47328 21.15968 21.15968 21.15968s21.15968-9.472 21.15968-21.15968l0-35.97184 262.37696 0 0 35.97184c0 11.6864 9.472 21.15968 21.15968 21.15968 11.6864 0 21.15968-9.472 21.15968-21.15968l0-35.97184L799.616 227.4496l0 139.41248L170.31936 366.86208 170.31936 227.4496zM690.49984 483.10016c-113.83808 0-206.44992 92.61312-206.44992 206.45248 0 113.83552 92.61184 206.44736 206.44992 206.44736s206.44992-92.61312 206.44992-206.44736C896.94976 575.71328 804.33792 483.10016 690.49984 483.10016zM690.49984 853.68064c-90.50112 0-164.13056-73.62816-164.13056-164.13184s73.62816-164.13184 164.13056-164.13184c90.5024 0 164.13184 73.62816 164.13184 164.13184S781.00224 853.68064 690.49984 853.68064zM390.10304 640.81536l-143.8848 0c-11.68768 0-21.15968 9.472-21.15968 21.15968 0 11.68512 9.472 21.1584 21.15968 21.1584l143.8848 0c11.6864 0 21.15968-9.47328 21.15968-21.1584C411.26144 650.28736 401.78816 640.81536 390.10304 640.81536zM390.10304 521.32608l-143.8848 0c-11.68768 0-21.15968 9.47328-21.15968 21.1584 0 11.68768 9.472 21.15968 21.15968 21.15968l143.8848 0c11.6864 0 21.15968-9.472 21.15968-21.15968C411.26144 530.80064 401.78816 521.32608 390.10304 521.32608zM803.1744 668.39296l-91.51488 0 0-50.78272c0-11.68768-9.472-21.15968-21.1584-21.15968s-21.15968 9.472-21.15968 21.15968l0 71.9424c0 11.68512 9.47328 21.1584 21.15968 21.1584l112.67328 0c11.6864 0 21.15968-9.47328 21.15968-21.1584C824.33536 677.86496 814.8608 668.39296 803.1744 668.39296z" p-id="5331" fill="#8a8a8a"></path></svg>