<?xml version="1.0" standalone="no"?><!DOCTYPE svg PUBLIC "-//W3C//DTD SVG 1.1//EN" "http://www.w3.org/Graphics/SVG/1.1/DTD/svg11.dtd"><svg t="1553478255619" class="icon" style="" viewBox="0 0 1024 1024" version="1.1" xmlns="http://www.w3.org/2000/svg" p-id="1799" xmlns:xlink="http://www.w3.org/1999/xlink" width="200" height="200"><defs><style type="text/css"></style></defs><path d="M329.285097 317.714062l-8.422833 4.428869c-8.78099 4.584412-13.528108 14.84715-11.923564 24.415063 1.644453 4.909823 3.491521 9.864672 5.492084 14.747889 2.030239 4.854565 4.230348 9.652847 6.53688 14.293541 5.621021 7.891737 16.246009 11.824303 25.699312 8.858762l9.041934-2.868327c14.741749-3.860934 31.115672-0.056282 42.62582 11.512195 11.549034 11.526521 15.374152 27.863604 11.549034 42.570561l-2.882654 9.126868c-2.958378 9.438976 0.938372 20.042475 8.830109 25.706475 4.634554 2.328022 9.403161 4.52813 14.323217 6.529717 4.876054 2.043542 9.80839 3.846608 14.739702 5.478781 9.538237 1.603521 19.87363-3.123131 24.414039-11.910261l4.402263-8.388041c7.67889-13.144368 21.915126-22.002107 38.267559-22.002107 16.338107 0 30.547737 8.829086 38.255279 21.931498l4.41352 8.459672c4.584412 8.78713 14.84715 13.513782 24.414039 11.910261 4.91187-1.632173 9.851369-3.462868 14.734586-5.478781 4.882194-2.030239 9.66615-4.201695 14.322194-6.529717 7.891737-5.622044 11.809977-16.253172 8.843412-25.706475l-2.852978-9.041934c-3.859911-14.733563-0.069585-31.085996 11.484565-42.655496 11.55415-11.525498 27.878954-15.372106 42.599214-11.512195l9.097192 2.88163c9.426697 2.952238 20.044522-0.937348 25.693172-8.829086 2.313695-4.656043 4.527107-9.411347 6.54302-14.322194 2.029216-4.883217 3.847631-9.80839 5.495154-14.748912 1.616824-9.581216-3.108804-19.843954-11.911284-24.429389l-8.402367-4.400217c-13.132088-7.665587-21.98778-21.901823-21.98778-38.255279 0-16.32378 8.830109-30.589692 21.974477-38.268582l8.416693-4.443196c8.80248-4.571109 13.528108-14.832823 11.924587-24.400736-1.6465-4.910846-3.479241-9.850345-5.493108-14.733563-2.031263-4.868891-4.202719-9.680477-6.529717-14.308891-5.622044-7.890714-16.253172-11.82328-25.708522-8.842389l-9.05626 2.852978c-14.747889 3.861958-31.071669 0.057305-42.654472-11.512195-11.55415-11.55415-15.344476-27.877931-11.484565-42.612517l2.852978-9.05626c2.966565-9.44-0.951675-20.043499-8.856715-25.692149-4.641717-2.328022-9.397021-4.542456-14.307867-6.544043-4.883217-2.029216-9.82374-3.846608-14.734586-5.465478-9.567913-1.632173-19.872606 3.123131-24.414039 11.895935l-4.400217 8.389064c-7.67889 13.174044-21.931498 22.002107-38.268582 22.002107-16.309454 0-30.576389-8.828063-38.267559-22.002107l-4.387937-8.389064c-4.554736-8.771781-14.8318-13.528108-24.405853-11.895935-4.954849 1.604544-9.873882 3.435239-14.763239 5.4225-4.883217 2.044566-9.688663 4.217045-14.323217 6.545066-7.891737 5.649674-11.808954 16.266475-8.830109 25.735128l2.826372 9.05626c3.882424 14.762215 0.057305 31.085996-11.491729 42.612517-11.510148 11.5695-27.849278 15.373129-42.611493 11.526521l-9.070586-2.867304c-9.44-2.980891-20.063965 0.951675-25.686009 8.842389-2.342348 4.628414-4.52813 9.44-6.53688 14.308891-2.036379 4.882194-3.847631 9.822716-5.492084 14.733563-1.603521 9.581216 3.142573 19.85828 11.923564 24.443715l8.402367 4.400217c13.156648 7.67889 21.986757 21.944801 21.986757 38.268582C351.251388 295.79689 342.421278 310.019823 329.285097 317.714062zM511.977999 171.706687c59.532885 0 107.795075 48.275493 107.795075 107.779725 0 59.490929-48.26219 107.752096-107.795075 107.752096-59.533908 0-107.752096-48.26219-107.752096-107.752096C404.226926 219.98218 452.445114 171.706687 511.977999 171.706687z" p-id="1800" fill="#bfbfbf"></path><path d="M924.647713 689.174212 798.570249 689.174212 798.570249 581.650313c0-26.387997-21.476127-47.850821-47.864124-47.850821L276.2543 533.799492c-26.386974 0-47.851844 21.462824-47.851844 47.850821l0 107.523899L99.345124 689.174212c-20.419052 0-36.95568 16.550954-36.95568 36.948517l0 184.771237c0 20.399609 16.536628 36.962843 36.95568 36.962843l273.965675 0c20.397562 0 36.947494-16.564257 36.947494-36.962843L410.258293 726.122729c0-20.398586-16.550954-36.948517-36.947494-36.948517l-123.103736 0L250.207064 581.650313c0-14.366196 11.68104-26.047236 26.047236-26.047236l474.451826 0c14.364149 0 26.062586 11.68104 26.062586 26.047236l0 107.523899L650.689201 689.174212c-20.412912 0-36.962843 16.550954-36.962843 36.948517l0 184.771237c0 20.399609 16.549931 36.962843 36.962843 36.962843l273.958512 0c20.397562 0 36.96182-16.564257 36.96182-36.962843L961.609533 726.122729C961.609533 705.725166 945.044252 689.174212 924.647713 689.174212z" p-id="1801" fill="#bfbfbf"></path></svg>