<?xml version="1.0" standalone="no"?><!DOCTYPE svg PUBLIC "-//W3C//DTD SVG 1.1//EN" "http://www.w3.org/Graphics/SVG/1.1/DTD/svg11.dtd"><svg t="1554868028575" class="icon" style="" viewBox="0 0 1024 1024" version="1.1" xmlns="http://www.w3.org/2000/svg" p-id="1497" xmlns:xlink="http://www.w3.org/1999/xlink" width="200" height="200"><defs><style type="text/css"></style></defs><path d="M558.409143 658.285714h-92.818286l-28.379428 62.427429a18.285714 18.285714 0 1 1-33.28-15.140572l91.428571-201.142857a18.285714 18.285714 0 0 1 33.28 0l91.428571 201.142857a18.285714 18.285714 0 1 1-33.28 15.140572L558.409143 658.285714z m-16.64-36.571428L512 556.178286 482.230857 621.714286h59.538286zM329.142857 128h475.428572a18.285714 18.285714 0 1 1 0 36.571429H329.142857a91.428571 91.428571 0 0 0 0 182.857142h475.428572a18.285714 18.285714 0 0 1 18.285714 18.285715v512a18.285714 18.285714 0 0 1-18.285714 18.285714H329.142857A128 128 0 0 1 201.142857 768V256A128 128 0 0 1 329.142857 128zM237.714286 345.6V768A91.428571 91.428571 0 0 0 329.142857 859.428571h457.142857v-475.428571H329.142857a127.634286 127.634286 0 0 1-91.428571-38.4zM329.142857 274.285714a18.285714 18.285714 0 0 1 0-36.571428h438.857143a18.285714 18.285714 0 1 1 0 36.571428H329.142857z" p-id="1498" fill="#bfbfbf"></path></svg>