<?xml version="1.0" standalone="no"?><!DOCTYPE svg PUBLIC "-//W3C//DTD SVG 1.1//EN" "http://www.w3.org/Graphics/SVG/1.1/DTD/svg11.dtd"><svg t="1554009929581" class="icon" style="" viewBox="0 0 1024 1024" version="1.1" xmlns="http://www.w3.org/2000/svg" p-id="2851" xmlns:xlink="http://www.w3.org/1999/xlink" width="200" height="200"><defs><style type="text/css"></style></defs><path d="M511.471952 957.559056c-51.013955 0-93.475781-37.318473-101.502932-86.07185l-199.795618 0c-32.961053 0-59.794291-26.834261-59.794291-59.827038 0-12.417319 3.735224-24.277935 10.811684-34.336434l83.646513-111.561431 533.235518 0 83.515524 111.364948c7.306713 10.484212 11.008167 22.246587 11.008167 34.532917 0 32.9938-26.833238 59.827038-59.794291 59.827038l-199.861112 0C604.914986 920.241606 562.485907 957.559056 511.471952 957.559056zM261.61307 699.312805l-73.293289 97.734961c-2.751786 3.964455-4.390168 9.174325-4.390168 14.612403 0 14.481414 11.762375 26.276536 26.243789 26.276536l231.969715 0 0 16.774739c0 38.202647 31.093441 69.296088 69.328835 69.296088 38.202647 0 69.296088-31.093441 69.296088-69.296088l0-16.774739 232.03521 0c14.481414 0 26.243789-11.795122 26.243789-26.276536 0-5.373606-1.605635-10.516959-4.652145-14.875403l-73.096806-97.472983L261.61307 699.311782zM786.461219 613.240955l-550.011281 0 0-188.951187c0-112.348386 68.673891-213.392858 172.142677-255.101499l0-3.113028c0-56.715033 46.164304-102.879337 102.879337-102.879337 56.715033 0 102.84659 46.164304 102.84659 102.879337l0 3.113028c103.468786 41.708641 172.142677 142.753113 172.142677 255.101499L786.461219 613.240955zM270.00044 579.690453l482.910277 0 0-155.400685c0-102.158899-64.67669-193.668827-160.969751-227.677789l-11.172926-3.964455 0-26.571261c0-38.235394-31.093441-69.328835-69.296088-69.328835-38.235394 0-69.328835 31.093441-69.328835 69.328835l0 26.571261-11.172926 3.964455c-96.294085 34.008962-160.969751 125.51889-160.969751 227.677789L270.00044 579.690453z" p-id="2852" fill="#8a8a8a"></path></svg>