<?xml version="1.0" standalone="no"?><!DOCTYPE svg PUBLIC "-//W3C//DTD SVG 1.1//EN" "http://www.w3.org/Graphics/SVG/1.1/DTD/svg11.dtd"><svg t="1547360570987" class="icon" style="" viewBox="0 0 1024 1024" version="1.1" xmlns="http://www.w3.org/2000/svg" p-id="5914" xmlns:xlink="http://www.w3.org/1999/xlink" width="200" height="200"><defs><style type="text/css"></style></defs><path d="M234.27218 32h58.36780969v179.99999344h-58.36874719V32zM583.99997844 32h58.27218562v179.99999344H583.99997844V32zM175.99999437 331.99998875h524.59216688v59.99999719H175.99999437v-59.99999719z m0 179.9999925h291.40780125v59.99999812H175.99999437v-59.99999812z m352.55998594 383.999985H32V79.99999812h767.99997v381.6477975C911.16871531 492.99216969 991.9999625 597.1043525 991.9999625 721.99997281c0 149.99999437-116.59218281 269.99998969-262.27217719 269.99998969a258.38436469 258.38436469 0 0 1-201.1199925-95.99999625z m212.35217906-443.75998312V138.31999625H91.08781062v699.35997188H492.36873219A277.72780125 277.72780125 0 0 1 467.40779562 721.99997281c0-149.99999437 116.59218281-269.99998969 262.31998969-269.99998875 3.744375 0 7.4878125 0.095625 11.18437407 0.23999906zM175.99999437 691.99997469h233.13561563v59.99999719H175.99999437v-59.99999719z m553.72779094-179.99999344c-110.73562031 0-203.9999925 95.99999625-203.9999925 209.99999156s93.26437125 209.99999156 203.9999925 209.9999925 203.9999925-95.99999625 203.99999156-209.9999925-93.26343375-209.99999156-203.99999156-209.99999156zM703.99997375 559.99997938h59.75999812v203.99999249H703.99997375V559.99997938z m59.75999812 239.99999062v59.75999812H703.99997375V799.99997h59.75999812z" p-id="5915" fill="#bfbfbf"></path></svg>