<?xml version="1.0" standalone="no"?><!DOCTYPE svg PUBLIC "-//W3C//DTD SVG 1.1//EN" "http://www.w3.org/Graphics/SVG/1.1/DTD/svg11.dtd"><svg t="1545960873089" class="icon" style="" viewBox="0 0 1024 1024" version="1.1" xmlns="http://www.w3.org/2000/svg" p-id="1303" xmlns:xlink="http://www.w3.org/1999/xlink" width="200" height="200"><defs><style type="text/css"></style></defs><path d="M784 112H240C152 112 80 184 80 272v480c0 88 72 160 160 160h544c88 0 160-72 160-160V272c0-88-72-160-160-160z m96 640c0 52.8-43.2 96-96 96H240c-52.8 0-96-43.2-96-96V272c0-52.8 43.2-96 96-96h544c52.8 0 96 43.2 96 96v480z" fill="#4A576A" p-id="1304"></path><path d="M352 480c52.8 0 96-43.2 96-96s-43.2-96-96-96-96 43.2-96 96 43.2 96 96 96z m0-128c17.6 0 32 14.4 32 32s-14.4 32-32 32-32-14.4-32-32 14.4-32 32-32zM814.4 731.2l-3.2-3.2-177.6-177.6c-25.6-25.6-65.6-25.6-91.2 0l-80 80-36.8-36.8c-25.6-25.6-65.6-25.6-91.2 0l-134.4 134.4c-4.8 6.4-8 14.4-8 24 0 17.6 14.4 32 32 32 9.6 0 16-3.2 22.4-9.6l134.4-134.4 134.4 134.4c6.4 6.4 14.4 9.6 24 9.6 17.6 0 32-14.4 32-32 0-9.6-4.8-17.6-9.6-24l-52.8-52.8 80-80 180.8 180.8c6.4 4.8 12.8 8 20.8 8 17.6 0 32-14.4 32-32 0-8-3.2-16-8-20.8z" fill="#4A576A" p-id="1305"></path></svg>