<?xml version="1.0" standalone="no"?><!DOCTYPE svg PUBLIC "-//W3C//DTD SVG 1.1//EN" "http://www.w3.org/Graphics/SVG/1.1/DTD/svg11.dtd"><svg t="1544682877339" class="icon" style="" viewBox="0 0 1024 1024" version="1.1" xmlns="http://www.w3.org/2000/svg" p-id="5670" xmlns:xlink="http://www.w3.org/1999/xlink" width="200" height="200"><defs><style type="text/css"></style></defs><path d="M449.98144 243.90144c-57.7536-10.624-121.00096-7.98208-167.65952 6.8352C195.92192 278.19008 146.95936 329.984 119.76192 406.528c-32.22528 90.69568-2.93376 190.62784 15.81056 248.63744 18.74432 58.0096 76.0576 144.97792 135.94112 155.8528 63.7696 11.58144 121.30816-9.89696 155.37664-50.7392 16.05632-19.24608 30.27456-46.75072 31.70816-74.46016 0.93184-18.0224-1.22368-31.64672-6.1696-45.14816-5.64224-15.40096-15.06816-29.6448-32.95232-46.57664-19.18976-18.17088-62.53056-34.09408-104.28416-28.29312-30.90432 4.29056-56.55552 15.67744-78.4384 32.47616-33.5872 25.78944-65.41312 82.65728-65.41312 82.65728s-1.152-33.25952 13.27104-66.69824c7.22944-16.75264 24.3968-44.8512 41.26208-58.99776 17.12128-14.36672 37.85728-31.5392 72.1664-40.32 38.8864-9.95328 78.27456-6.97856 93.62944-3.5584 46.39744 10.32192 82.24256 34.64704 111.616 65.32096 59.52512 62.16704 82.46784 161.536 51.75296 246.03648-10.28096 28.28288-38.85056 61.06112-69.30944 85.10976-18.32448 14.464-57.00096 35.4048-103.18848 45.14304-30.592 6.4512-64.48128 6.2976-97.93536 2.2272-83.95776-10.22464-159.50336-86.53312-195.11296-147.77856-35.61472-61.24544-89.0368-186.05568-75.80672-320.60928 6.30272-64.12288 28.08832-132.46976 62.88384-182.4768C114.77504 249.3952 167.1168 215.15264 194.80576 199.13216c52.89984-30.60736 132.29056-43.6224 185.19552-40.832 33.62816 1.77664 86.85568 12.66688 137.27232 38.08768 39.66464 20.00384 75.78112 55.2448 92.17536 95.37536 9.81504 24.02304 6.71232 47.49312 6.67136 47.49312-0.04608 0.11776 1.13664-2.54464-31.44192-34.05312C557.16352 278.59456 507.72992 254.53056 449.98144 243.90144L449.98144 243.90144z" p-id="5671"></path><path d="M559.07328 155.18208c0 0 37.8624-68.5056 72.36096-88.50944 34.49856-20.00384 61.65504-7.67488 79.4624 5.92896 17.81248 13.60384 26.82368 30.91456 22.912 55.552-3.91168 24.63744-43.14624 71.76192-66.3296 106.22976C631.34208 207.98464 595.21024 181.58592 559.07328 155.18208L559.07328 155.18208z" p-id="5672"></path><path d="M408.26368 117.03296c0 0 6.8096-62.65344 26.31168-88.04864 19.50208-25.3952 43.65824-24.41216 61.23008-19.64544 17.57184 4.76672 29.73184 14.97088 34.53952 34.56 4.80256 19.59424-9.73312 66.688-16.24576 99.46112C478.81728 134.58944 443.54048 125.80864 408.26368 117.03296L408.26368 117.03296z" p-id="5673"></path><path d="M294.76352 125.06112c0 0-11.65824-45.60896-4.6592-68.34176 7.00416-22.72768 24.17664-28.16 37.7344-29.27104 13.55776-1.11104 24.7552 2.94912 33.2544 15.45728 8.4992 12.50304 10.66496 49.17248 14.69952 73.78432C348.78464 119.48032 321.77152 122.27072 294.76352 125.06112L294.76352 125.06112z" p-id="5674"></path><path d="M185.1648 163.1232c0 0-20.89984-34.67264-20.79232-55.01952 0.10752-20.352 12.86656-28.93312 23.7312-33.1008 10.85952-4.16768 21.06368-3.51744 31.1552 4.72064 10.09152 8.23296 20.97152 37.8368 30.39744 57.08288C228.15744 145.57696 206.66368 154.35264 185.1648 163.1232L185.1648 163.1232z" p-id="5675"></path><path d="M97.408 227.1488c0 0-26.7776-25.18528-31.72352-42.9312-4.9408-17.74592 4.0448-28.26752 12.47232-34.49344 8.4224-6.22592 17.46944-8.09472 28.29312-3.34336 10.81856 4.75648 27.6224 27.9296 40.59136 42.42944C130.49856 201.58976 113.95584 214.36928 97.408 227.1488L97.408 227.1488z" p-id="5676"></path><path d="M762.08128 537.68704c38.15424 4.096 77.2864 17.52064 103.7568 35.49696 49.01376 33.28 70.04672 74.84416 72.832 127.85664 3.3024 62.81216-33.65376 119.96672-56.192 152.81664-22.53824 32.84992-74.63424 76.66176-114.17088 72.33024-42.10176-4.61824-74.15296-28.78464-87.88992-60.71296-6.4768-15.04768-10.2656-34.92864-6.00576-52.55168 2.76992-11.46368 6.656-19.59936 12.27264-27.136 6.40512-8.59648 14.96064-15.76448 29.312-23.04512 15.40608-7.81312 45.52192-9.71776 70.59456 1.6896 18.56 8.44288 32.512 20.352 43.08992 34.94912 16.24064 22.41024 25.59488 63.95904 25.59488 63.95904s6.91712-20.61824 4.10112-44.25216c-1.408-11.83744-6.93248-32.64-14.86336-44.64128-8.05376-12.1856-17.8432-26.80832-37.70368-38.69696-22.50752-13.47072-47.73376-18.944-57.98912-19.6608-30.98624-2.17088-57.97376 6.39488-82.07872 20.14208-48.86016 27.86304-81.73056 85.84192-78.22336 144.49664 1.17248 19.63008 12.96896 45.48608 27.57632 66.21696 8.78592 12.47232 29.11744 32.78848 56.23808 47.49312 17.96608 9.73824 39.22432 15.9488 60.93824 19.62496 54.49728 9.22624 116.02944-24.51456 149.74464-56.25344 33.71008-31.73888 90.41408-99.98336 107.17696-186.73664 7.9872-41.33888 7.06048-88.2176-5.42208-126.02368-13.71136-41.5232-40.12544-72.71424-54.49216-87.90528-27.4432-29.02016-74.752-51.95776-108.416-60.0576-21.39136-5.1456-56.77056-8.23296-93.08672-1.69472-28.57472 5.14048-57.75872 20.50048-75.49952 42.58816-10.61888 13.22496-13.04576 28.50304-13.04576 28.50304s-0.21504-1.79712 26.06592-15.47264C688.47616 539.46368 723.92192 533.59104 762.08128 537.68704L762.08128 537.68704z" p-id="5677"></path><path d="M710.25664 461.7984c0 0-10.96704-49.96608-28.85632-68.92032-17.88416-18.94912-37.19168-16.2816-50.88256-11.07968-13.69088 5.20704-22.55872 14.37184-24.69376 30.53568-2.13504 16.16384 13.66528 52.98688 21.77536 78.8992C655.15008 481.42336 682.70592 471.60832 710.25664 461.7984L710.25664 461.7984z" p-id="5678"></path><path d="M811.83232 465.97632c0 0 7.3984-40.51456-0.09216-60.0576-7.49056-19.54304-22.80448-23.424-34.70336-23.71072-11.89888-0.28672-21.41696 3.84512-28.07296 15.22176-6.656 11.37664-6.31808 43.58656-8.34048 65.3312C764.3648 463.83616 788.10112 464.90624 811.83232 465.97632L811.83232 465.97632z" p-id="5679"></path><path d="M881.43872 492.1344c0 0 15.7952-26.40384 15.6416-41.94304-0.1536-15.54432-9.9072-22.144-18.19136-25.36448-8.28928-3.22048-16.05632-2.75968-23.71072 3.49184-7.64928 6.25152-15.83616 28.82048-22.94272 43.48416C848.64 478.58176 865.03936 485.35552 881.43872 492.1344L881.43872 492.1344z" p-id="5680"></path><path d="M943.01184 536.38144c0 0 19.54816-17.82784 23.2704-30.59712 3.72224-12.76928-2.67264-20.52096-8.704-25.15456-6.03136-4.6336-12.53888-6.12352-20.39296-2.8416-7.85408 3.2768-20.18304 19.79904-29.6704 30.10048C919.3472 517.38624 931.17952 526.88384 943.01184 536.38144L943.01184 536.38144z" p-id="5681"></path><path d="M986.07104 592.82432c0 0 21.46304-10.79296 27.86304-20.992 6.4-10.19392 2.72896-18.46272-1.39264-23.93088-4.11648-5.46816-9.43616-8.32512-17.1008-7.36256-7.66464 0.96256-22.50752 12.35456-33.3312 19.0208C970.09664 570.65472 978.08384 581.73952 986.07104 592.82432L986.07104 592.82432z" p-id="5682"></path></svg>