<?xml version="1.0" standalone="no"?><!DOCTYPE svg PUBLIC "-//W3C//DTD SVG 1.1//EN" "http://www.w3.org/Graphics/SVG/1.1/DTD/svg11.dtd"><svg t="1545700954682" class="icon" style="" viewBox="0 0 1024 1024" version="1.1" xmlns="http://www.w3.org/2000/svg" p-id="3654" xmlns:xlink="http://www.w3.org/1999/xlink" width="200" height="200"><defs><style type="text/css"></style></defs><path d="M868.935 1008.63l-713.868 0c-40.657 0-72.291-31.631-72.291-67.773l0-496.994c0-36.144 31.631-67.773 72.291-67.773l713.868 0c40.657 0 72.291 31.631 72.291 67.773l0 496.994c0 36.144-31.631 67.773-72.291 67.773l0 0 0 0 0 0zM512 543.259c-58.732 0-108.432 45.187-108.432 99.402 0 36.144 22.586 67.773 54.218 85.849l0 94.887c0 27.108 22.586 49.696 54.218 49.696s54.218-22.586 54.218-49.696l0-94.887c31.631-18.071 54.218-49.696 54.218-85.849 0-54.218-49.696-99.402-108.432-99.402l0 0 0 0zM512 114.031c-117.471 0-216.867 90.356-216.867 198.797l-108.432 0c0-162.655 144.582-298.202 320.79-298.202s320.79 135.546 320.79 298.202l-108.432 0c9.041-112.951-90.356-198.797-207.836-198.797l0 0 0 0zM512 114.031z" p-id="3655"></path></svg>