<?xml version="1.0" standalone="no"?><!DOCTYPE svg PUBLIC "-//W3C//DTD SVG 1.1//EN" "http://www.w3.org/Graphics/SVG/1.1/DTD/svg11.dtd"><svg t="1547360510388" class="icon" style="" viewBox="0 0 1024 1024" version="1.1" xmlns="http://www.w3.org/2000/svg" p-id="4026" xmlns:xlink="http://www.w3.org/1999/xlink" width="200" height="200"><defs><style type="text/css"></style></defs><path d="M787.692308 275.692308V78.769231c0-43.323077-35.446154-78.769231-78.769231-78.769231H78.769231C35.446154 0 0 35.446154 0 78.769231v866.461538c0 43.323077 35.446154 78.769231 78.769231 78.769231h354.461538v-39.384615H78.769231c-19.692308 0-39.384615-15.753846-39.384616-39.384616V78.769231c0-23.630769 15.753846-39.384615 39.384616-39.384616h630.153846c19.692308 0 39.384615 15.753846 39.384615 39.384616v196.923077h39.384616z" fill="#bfbfbf" p-id="4027"></path><path d="M137.846154 472.615385h196.923077c11.815385 0 19.692308 7.876923 19.692307 19.692307s-7.876923 19.692308-19.692307 19.692308h-196.923077c-11.815385 0-19.692308-7.876923-19.692308-19.692308s7.876923-19.692308 19.692308-19.692307zM137.846154 669.538462h118.153846c11.815385 0 19.692308 7.876923 19.692308 19.692307s-7.876923 19.692308-19.692308 19.692308h-118.153846c-11.815385 0-19.692308-7.876923-19.692308-19.692308s7.876923-19.692308 19.692308-19.692307zM137.846154 275.692308h354.461538c11.815385 0 19.692308 7.876923 19.692308 19.692307s-7.876923 19.692308-19.692308 19.692308h-354.461538c-11.815385 0-19.692308-7.876923-19.692308-19.692308s7.876923-19.692308 19.692308-19.692307zM716.8 433.230769c7.876923 0 19.692308 0 31.507692 3.938462 0 3.938462 3.938462 11.815385 3.938462 19.692307 3.938462 23.630769 11.815385 63.015385 55.138461 78.769231 7.876923 3.938462 15.753846 3.938462 19.692308 3.938462 31.507692 0 51.2-19.692308 66.953846-35.446154l11.815385-11.815385c43.323077 19.692308 66.953846 51.2 70.892308 98.461539-3.938462 3.938462-11.815385 7.876923-19.692308 7.876923-15.753846 7.876923-51.2 27.569231-51.2 70.892308s39.384615 63.015385 63.015384 74.830769c3.938462 3.938462 11.815385 7.876923 19.692308 7.876923-3.938462 47.261538-27.569231 74.830769-74.830769 98.461538l-11.815385-11.815384c-15.753846-15.753846-35.446154-31.507692-66.953846-31.507693-7.876923 0-15.753846 0-23.630769 3.938462-43.323077 11.815385-51.2 51.2-55.138462 74.830769 0 3.938462-3.938462 11.815385-3.938461 15.753846-11.815385 0-19.692308 3.938462-31.507692 3.938462-35.446154 0-63.015385-11.815385-86.646154-39.384616 0-3.938462 3.938462-11.815385 7.876923-15.753846 11.815385-23.630769 31.507692-59.076923 3.938461-94.523077-7.876923-11.815385-27.569231-27.569231-63.015384-27.56923-11.815385 0-19.692308 0-31.507693 3.938461-7.876923 0-15.753846 3.938462-19.692307 3.938462-23.630769-43.323077-23.630769-78.769231 0-122.092308 3.938462 0 11.815385 0 19.692307 3.938462 7.876923 0 19.692308 3.938462 31.507693 3.938461 31.507692 0 51.2-15.753846 63.015384-27.569231 27.569231-35.446154 7.876923-74.830769-3.938461-94.523077-3.938462-3.938462-7.876923-11.815385-7.876923-15.753846 23.630769-39.384615 51.2-51.2 82.707692-51.2m0-39.384615c-47.261538 0-82.707692 19.692308-118.153846 55.138461-27.569231 31.507692 35.446154 78.769231 11.815384 110.276923-7.876923 11.815385-19.692308 11.815385-31.507692 11.815385-15.753846 0-35.446154-3.938462-51.2-3.938461-11.815385 0-23.630769 3.938462-31.507692 15.753846-31.507692 55.138462-31.507692 110.276923 0 169.353846 7.876923 11.815385 19.692308 15.753846 31.507692 15.753846 15.753846 0 35.446154-3.938462 51.2-3.938462 11.815385 0 23.630769 3.938462 31.507692 11.815385 23.630769 35.446154-43.323077 78.769231-11.815384 110.276923 35.446154 39.384615 74.830769 55.138462 122.092308 55.138462 11.815385 0 27.569231 0 43.323076-3.938462 43.323077-7.876923 19.692308-78.769231 59.076924-94.523077h7.876923c31.507692 0 51.2 47.261538 78.76923 47.261539 3.938462 0 7.876923 0 11.815385-3.938462 63.015385-27.569231 94.523077-70.892308 102.4-133.907692 3.938462-43.323077-78.769231-43.323077-78.769231-82.707692 0-43.323077 82.707692-39.384615 78.769231-82.707693-7.876923-63.015385-39.384615-110.276923-102.4-133.907692-3.938462 0-7.876923-3.938462-11.815385-3.938462-31.507692 0-51.2 51.2-82.707692 51.2h-7.876923c-39.384615-11.815385-15.753846-86.646154-59.076923-98.461538-15.753846-7.876923-27.569231-7.876923-43.323077-7.876923z" fill="#bfbfbf" p-id="4028"></path><path d="M748.307692 590.769231c43.323077 0 78.769231 35.446154 78.769231 78.769231s-35.446154 78.769231-78.769231 78.76923-78.769231-35.446154-78.76923-78.76923 35.446154-78.769231 78.76923-78.769231m0-39.384616c-66.953846 0-118.153846 51.2-118.153846 118.153847s51.2 118.153846 118.153846 118.153846 118.153846-51.2 118.153846-118.153846-51.2-118.153846-118.153846-118.153847z" fill="#bfbfbf" p-id="4029"></path></svg>