<?xml version="1.0" standalone="no"?><!DOCTYPE svg PUBLIC "-//W3C//DTD SVG 1.1//EN" "http://www.w3.org/Graphics/SVG/1.1/DTD/svg11.dtd"><svg t="1543477660371" class="icon" style="" viewBox="0 0 1024 1024" version="1.1" xmlns="http://www.w3.org/2000/svg" p-id="3778" xmlns:xlink="http://www.w3.org/1999/xlink" width="200" height="200"><defs><style type="text/css">@font-face { font-family: rbicon; src: url("chrome-extension://dipiagiiohfljcicegpgffpbnjmgjcnf/fonts/rbicon.woff2") format("woff2"); font-weight: normal; font-style: normal; }
</style></defs><path d="M418.496 705.6 383.296 705.6l0-53.248 0 0C384 484.48 257.28 503.808 255.872 503.808L255.488 503.744c-133.504 0-125.632 146.112-125.632 148.608l0 53.248L91.84 705.6C76.032 705.6 64 716.864 64 731.52l0 201.152c0 14.72 12.032 25.856 27.84 25.856l326.656 0c15.808 0 28.096-11.136 28.096-25.856L446.592 731.52C446.592 716.864 434.24 705.6 418.496 705.6zM175.936 652.352c0-0.448-4.928-100.8 77.376-100.8 7.296 0.256 78.144-4.032 78.144 100.8l0 53.248-155.52 0L175.936 652.352zM960 889.024c0 61.12-77.824 69.504-77.824 69.504L635.776 958.528l-80.64 0c0 0-41.088 0.96-41.088-39.168l-1.344-196.928C514.304 533.376 464 464.768 348.8 427.264c-33.344-24.96-47.168-31.296-47.168-78.528 0-47.232 38.848-47.232 38.848-47.232s0 1.344 13.824-76.416c13.44-75.456 87.232-155.968 208.32-160.64L562.624 64c1.792 0 3.456 0.192 5.248 0.192C569.856 64.192 571.776 64 573.824 64l0 0.512c105.28 5.312 181.056 85.44 194.432 160.576 13.888 77.76 13.888 76.416 13.888 76.416s38.848 0 38.848 47.232c0 47.232-13.824 63.936-47.168 88.896C740.48 462.656 750.4 516.48 698.88 563.968c-27.52 25.344-47.232 44.48-47.232 80.64 0 36.032 19.456 44.352 38.848 55.488s150.016 47.232 211.136 88.96S960 852.928 960 889.024z" p-id="3779"></path></svg>