<?xml version="1.0" standalone="no"?><!DOCTYPE svg PUBLIC "-//W3C//DTD SVG 1.1//EN" "http://www.w3.org/Graphics/SVG/1.1/DTD/svg11.dtd"><svg t="1554009861477" class="icon" style="" viewBox="0 0 1024 1024" version="1.1" xmlns="http://www.w3.org/2000/svg" p-id="1989" xmlns:xlink="http://www.w3.org/1999/xlink" width="200" height="200"><defs><style type="text/css"></style></defs><path d="M756.081 1012.218 291.154 1012.218c-68.473 0-123.982-55.975-123.982-125.054L167.172 136.836c0-69.078 55.512-125.054 123.982-125.054l464.928 0c68.474 0 123.984 55.975 123.984 125.054l0 750.328C880.066 956.242 824.555 1012.218 756.081 1012.218L756.081 1012.218zM818.062 136.836c0-34.516-27.751-62.526-61.98-62.526L291.154 74.31c-34.228 0-61.991 28.01-61.991 62.526l0 31.268 588.899 0L818.062 136.836 818.062 136.836zM818.062 230.63 229.163 230.63l0 499.242 588.899 0L818.062 230.63 818.062 230.63zM818.062 792.398 229.163 792.398l0 94.766c0 34.54 27.765 62.526 61.991 62.526l464.928 0c34.229 0 61.98-27.986 61.98-62.526L818.062 792.398 818.062 792.398zM523.623 918.429c-25.668 0-46.482-20.993-46.482-46.896 0-25.903 20.816-46.895 46.482-46.895 25.664 0 46.477 20.993 46.477 46.895S549.287 918.429 523.623 918.429L523.623 918.429z" p-id="1990" fill="#8a8a8a"></path><path d="M756.081 1017.218 291.154 1017.218c-71.121 0-128.982-58.342-128.982-130.054L162.172 136.836c0-71.712 57.861-130.054 128.982-130.054l464.928 0c71.122 0 128.984 58.342 128.984 130.054l0 750.328C885.066 958.876 827.204 1017.218 756.081 1017.218zM291.154 16.783c-65.607 0-118.982 53.856-118.982 120.054l0 750.328c0 66.198 53.375 120.054 118.982 120.054l464.927 0c65.608 0 118.985-53.855 118.985-120.054L875.066 136.836c0-66.198-53.376-120.054-118.984-120.054L291.154 16.782zM756.082 954.69 291.154 954.69c-36.939 0-66.991-30.292-66.991-67.526l0-99.766 598.899 0 0.001 99.766C823.063 924.398 793.016 954.69 756.082 954.69zM234.163 797.398l0 89.766c0 31.72 25.566 57.526 56.991 57.526l464.928 0c31.419 0 56.98-25.807 56.98-57.526l0-89.766L234.163 797.398zM523.623 923.429c-28.387 0-51.482-23.28-51.482-51.896s23.096-51.895 51.482-51.895c28.385 0 51.477 23.279 51.477 51.895S552.008 923.429 523.623 923.429zM523.623 829.639c-22.873 0-41.482 18.794-41.482 41.895 0 23.102 18.609 41.896 41.482 41.896 22.871 0 41.477-18.794 41.477-41.896C565.1 848.433 546.494 829.639 523.623 829.639zM823.062 734.872 224.163 734.872 224.163 225.63l598.899 0L823.062 734.872zM234.163 724.872l578.899 0L813.062 235.63 234.163 235.63 234.163 724.872zM823.062 173.104 224.163 173.104l0-36.268c0-37.234 30.052-67.526 66.991-67.526l464.927 0c36.934 0 66.98 30.292 66.98 67.526L823.061 173.104zM234.163 163.104l578.899 0 0-26.268c0-31.72-25.562-57.526-56.98-57.526L291.154 79.31c-31.425 0-56.991 25.806-56.991 57.526L234.163 163.104z" p-id="1991" fill="#8a8a8a"></path></svg>