<?xml version="1.0" standalone="no"?><!DOCTYPE svg PUBLIC "-//W3C//DTD SVG 1.1//EN" "http://www.w3.org/Graphics/SVG/1.1/DTD/svg11.dtd"><svg t="1546225865881" class="icon" style="" viewBox="0 0 1024 1024" version="1.1" xmlns="http://www.w3.org/2000/svg" p-id="1276" xmlns:xlink="http://www.w3.org/1999/xlink" width="200" height="200"><defs><style type="text/css"></style></defs><path d="M892.928 499.712c-45.056-45.056-116.736-45.056-161.792 0-36.864 36.864-43.008 92.16-20.48 135.168L602.112 743.424c-51.2 51.2-137.216 45.056-194.56-10.24s-61.44-143.36-10.24-194.56L522.24 413.696l-45.056-45.056-124.928 124.928c-75.776 75.776-71.68 204.8 10.24 286.72 43.008 43.008 98.304 65.536 153.6 65.536 49.152 0 96.256-18.432 133.12-53.248L757.76 684.032c16.384 8.192 34.816 14.336 55.296 14.336 28.672 0 59.392-10.24 79.872-32.768 45.056-49.152 45.056-122.88 0-165.888zM847.872 614.4c-18.432 18.432-51.2 18.432-69.632 0-18.432-18.432-18.432-51.2 0-69.632 10.24-10.24 22.528-14.336 34.816-14.336s24.576 4.096 34.816 14.336c18.432 18.432 18.432 51.2 0 69.632z" fill="#bfbfbf" p-id="1277"></path><path d="M296.96 372.736l108.544-108.544c51.2-51.2 137.216-45.056 194.56 10.24 26.624 26.624 43.008 63.488 45.056 100.352 2.048 36.864-10.24 69.632-34.816 94.208L485.376 593.92l45.056 45.056L655.36 514.048c36.864-36.864 55.296-88.064 53.248-141.312-2.048-53.248-24.576-104.448-63.488-143.36-81.92-81.92-208.896-86.016-286.72-10.24L249.856 327.68c-43.008-22.528-98.304-16.384-135.168 20.48-45.056 45.056-45.056 116.736 0 161.792 22.528 22.528 51.2 32.768 79.872 32.768s59.392-10.24 79.872-32.768c38.912-38.912 45.056-94.208 22.528-137.216z m-65.536 90.112c-18.432 18.432-51.2 18.432-69.632 0-18.432-18.432-18.432-51.2 0-69.632 10.24-10.24 22.528-14.336 34.816-14.336 12.288 0 24.576 4.096 34.816 14.336 18.432 18.432 18.432 49.152 0 69.632z" fill="#bfbfbf" p-id="1278"></path></svg>