<?xml version="1.0" standalone="no"?><!DOCTYPE svg PUBLIC "-//W3C//DTD SVG 1.1//EN" "http://www.w3.org/Graphics/SVG/1.1/DTD/svg11.dtd"><svg t="1547360607827" class="icon" style="" viewBox="0 0 1024 1024" version="1.1" xmlns="http://www.w3.org/2000/svg" p-id="6287" xmlns:xlink="http://www.w3.org/1999/xlink" width="200" height="200"><defs><style type="text/css"></style></defs><path d="M900.512 388.751V287.87L512.708 63.967 124.904 287.87v240.093c-23.42 6.798-40.924 27.562-40.924 53.144s17.504 46.346 40.924 53.144v101.424l387.804 223.862 387.804-223.862V494.761c23.13-6.979 40.345-27.642 40.345-52.984 0-25.376-17.215-46.047-40.345-53.026zM114.87 581.107c0-13.999 11.356-25.355 25.355-25.355 13.958 0 25.314 11.356 25.314 25.355s-11.356 25.355-25.314 25.355c-13.999 0-25.355-11.356-25.355-25.355z m754.753 136.729L512.708 923.858 155.793 717.836v-83.638c23.265-6.883 40.635-27.603 40.635-53.09 0-25.487-17.37-46.207-40.635-53.09V305.709L512.708 99.646l356.915 206.063v82.856c-23.585 6.692-41.254 27.513-41.254 53.212 0 25.665 17.669 46.48 41.254 53.17v222.889z m14.99-250.745c-13.999 0-25.355-11.356-25.355-25.314 0-13.999 11.356-25.355 25.355-25.355s25.355 11.356 25.355 25.355c0 13.958-11.356 25.314-25.355 25.314z m-184.631-117.32c-5.947-2.271-12.678-0.661-17.014 4.047L511.841 542.29 338.029 357.576c-4.295-4.666-10.985-6.153-16.931-3.758a15.428 15.428 0 0 0-9.746 14.329v315.867h30.889V407.089l158.574 168.526a15.404 15.404 0 0 0 11.232 4.873c3.469-0.289 8.507-1.9 11.439-5.079l155.477-171.251v279.817h30.889v-319.79a15.492 15.492 0 0 0-9.87-14.414z" fill="#bfbfbf" p-id="6288"></path></svg>