<?xml version="1.0" standalone="no"?><!DOCTYPE svg PUBLIC "-//W3C//DTD SVG 1.1//EN" "http://www.w3.org/Graphics/SVG/1.1/DTD/svg11.dtd"><svg t="1555466208830" class="icon" style="" viewBox="0 0 1024 1024" version="1.1" xmlns="http://www.w3.org/2000/svg" p-id="1499" xmlns:xlink="http://www.w3.org/1999/xlink" width="200" height="200"><defs><style type="text/css"></style></defs><path d="M640 192c53.02 0 96-42.98 96-96S693.02 0 640 0s-96 42.98-96 96 42.98 96 96 96zM323.38 634.94l-29.6 69.04H160c-35.34 0-64 28.66-64 64s28.66 64 64 64h154.9c38.5 0 73.16-22.88 88.22-58.18l17.58-41.04-21.34-12.6c-34.64-20.46-60.12-50.74-75.98-85.22zM864 447.98h-88.06l-52.12-106.5c-25-51.1-70.9-88.46-123.56-101.88l-142.16-42.28c-56.6-13.6-115.54-1.1-161.68 34.28l-79.34 60.82c-28.06 21.5-33.38 61.66-11.84 89.72s61.68 33.32 89.72 11.84l79.38-60.82c15.34-11.78 34.88-16 50.54-12.28l29.4 8.74-74.92 174.78c-25.24 58.96-2.62 128.02 52.6 160.62l169.96 100.34-54.94 175.46c-10.56 33.72 8.22 69.62 41.94 80.18 6.38 2 12.82 2.96 19.16 2.96 27.22 0 52.46-17.54 61.04-44.9l63.28-202.12c11.82-41.54-5.78-86.16-43.28-108.78l-122.48-72.28 62.62-156.56 40.54 82.86c16 32.68 49.84 53.78 86.22 53.78H864c35.34 0 64-28.66 64-64s-28.66-63.98-64-63.98z" p-id="1500" fill="#8a8a8a"></path></svg>