<?xml version="1.0" standalone="no"?><!DOCTYPE svg PUBLIC "-//W3C//DTD SVG 1.1//EN" "http://www.w3.org/Graphics/SVG/1.1/DTD/svg11.dtd"><svg t="1544607518503" class="icon" style="" viewBox="0 0 1024 1024" version="1.1" xmlns="http://www.w3.org/2000/svg" p-id="6696" xmlns:xlink="http://www.w3.org/1999/xlink" width="200" height="200"><defs><style type="text/css"></style></defs><path d="M896 716.8c-44.8 0-76.8 25.6-96 57.6L460.8 614.4l147.2-243.2c25.6 12.8 51.2 25.6 83.2 25.6 83.2 0 153.6-70.4 153.6-153.6s-70.4-153.6-153.6-153.6-153.6 64-153.6 147.2c0 19.2 6.4 38.4 12.8 57.6L300.8 403.2c-25.6-44.8-76.8-76.8-134.4-76.8C83.2 326.4 12.8 396.8 12.8 480c0 83.2 70.4 153.6 153.6 153.6 12.8 0 19.2 0 32-6.4l57.6 128c-12.8 12.8-19.2 25.6-19.2 44.8 0 38.4 32 64 64 64 38.4 0 64-32 64-64 0-12.8-6.4-19.2-6.4-32l70.4-121.6 352 166.4v6.4c0 64 51.2 115.2 115.2 115.2s115.2-51.2 115.2-115.2-51.2-102.4-115.2-102.4z m-204.8-582.4c57.6 0 108.8 44.8 108.8 108.8s-44.8 108.8-108.8 108.8-108.8-57.6-108.8-115.2 51.2-102.4 108.8-102.4zM569.6 332.8l-153.6 256-108.8-44.8c6.4-19.2 12.8-44.8 12.8-64V448l249.6-115.2zM64 480c0-57.6 44.8-108.8 108.8-108.8s108.8 44.8 108.8 108.8c0 57.6-44.8 108.8-108.8 108.8S64 537.6 64 480z m262.4 262.4c-6.4 0-12.8-6.4-19.2-6.4h-6.4l-57.6-128c12.8-6.4 25.6-12.8 38.4-25.6l108.8 51.2-64 108.8z m569.6 147.2c-38.4 0-64-32-64-64 0-38.4 32-64 64-64s64 32 64 64c0 38.4-25.6 64-64 64z" p-id="6697"></path></svg>