<?xml version="1.0" standalone="no"?><!DOCTYPE svg PUBLIC "-//W3C//DTD SVG 1.1//EN" "http://www.w3.org/Graphics/SVG/1.1/DTD/svg11.dtd"><svg t="1553488917000" class="icon" style="" viewBox="0 0 1027 1024" version="1.1" xmlns="http://www.w3.org/2000/svg" p-id="2886" xmlns:xlink="http://www.w3.org/1999/xlink" width="200.5859375" height="200"><defs><style type="text/css"></style></defs><path d="M512 750.933333c-112.64 0-211.626667-119.466667-245.76-242.346666-34.133333 0-61.44-44.373333-61.44-102.4 0-17.066667 3.413333-34.133333 6.826667-47.786667-3.413333-20.48-6.826667-47.786667-6.826667-68.266667C204.8 129.706667 341.333333 0 508.586667 0S819.2 133.12 819.2 290.133333c0 20.48-3.413333 47.786667-6.826667 68.266667 3.413333 13.653333 6.826667 30.72 6.826667 47.786667 0 58.026667-27.306667 102.4-61.44 102.4-34.133333 122.88-133.12 242.346667-245.76 242.346666z m-235.52-279.893333h6.826667c3.413333 3.413333 10.24 6.826667 10.24 10.24 30.72 129.706667 129.706667 235.52 218.453333 235.52s187.733333-105.813333 218.453333-235.52c0-6.826667 6.826667-10.24 10.24-10.24 3.413333-3.413333 10.24 0 17.066667 0h3.413333c10.24 0 27.306667-27.306667 27.306667-68.266667 0-13.653333-3.413333-30.72-6.826667-40.96v-10.24c0-13.653333 3.413333-40.96 3.413334-61.44C785.066667 150.186667 658.773333 34.133333 508.586667 34.133333 358.4 34.133333 238.933333 150.186667 238.933333 290.133333c0 20.48 3.413333 47.786667 6.826667 64.853334v10.24c-3.413333 10.24-6.826667 23.893333-6.826667 40.96 0 40.96 17.066667 68.266667 27.306667 68.266666h3.413333c0-3.413333 3.413333-3.413333 6.826667-3.413333z" fill="#bfbfbf" p-id="2887"></path><path d="M1006.933333 1024H17.066667c-10.24 0-17.066667-6.826667-17.066667-17.066667v-40.96c0-116.053333 75.093333-218.453333 184.32-259.413333l112.64-30.72c6.826667 0 13.653333 0 17.066667 3.413333 51.2 58.026667 122.88 136.533333 197.973333 136.533334s143.36-78.506667 197.973333-136.533334c3.413333-3.413333 10.24-6.826667 17.066667-3.413333l109.226667 30.72c112.64 37.546667 191.146667 150.186667 191.146666 266.24v30.72c-3.413333 13.653333-10.24 20.48-20.48 20.48zM34.133333 989.866667h955.733334v-13.653334c0-98.986667-71.68-201.386667-167.253334-235.52l-98.986666-27.306666c-54.613333 61.44-129.706667 139.946667-215.04 139.946666s-160.426667-78.506667-215.04-139.946666l-98.986667 27.306666c-95.573333 34.133333-160.426667 122.88-160.426667 225.28v23.893334zM785.066667 375.466667h-51.2c-6.826667 0-13.653333-6.826667-17.066667-13.653334 0-3.413333-23.893333-109.226667-30.72-184.32-3.413333-30.72-30.72-58.026667-61.44-58.026666-23.893333 0-40.96 13.653333-58.026667 30.72-17.066667 13.653333-34.133333 20.48-54.613333 20.48-27.306667 0-47.786667 0-64.853333-20.48s-34.133333-30.72-47.786667-30.72c-40.96 0-71.68 30.72-75.093333 68.266666l-17.066667 170.666667c0 3.413333-3.413333 10.24-6.826667 10.24s-6.826667 6.826667-13.653333 6.826667c0 0-23.893333-3.413333-51.2-3.413334-10.24 0-17.066667-6.826667-17.066667-17.066666s10.24-17.066667 20.48-17.066667c13.653333 0 27.306667 0 37.546667 3.413333l17.066667-153.6c3.413333-58.026667 54.613333-102.4 109.226666-102.4 27.306667 0 54.613333 23.893333 71.68 44.373334 6.826667 6.826667 17.066667 6.826667 37.546667 6.826666 10.24 0 20.48-3.413333 30.72-13.653333 20.48-17.066667 47.786667-37.546667 81.92-37.546667 51.2 0 92.16 37.546667 95.573333 88.746667 3.413333 58.026667 20.48 136.533333 27.306667 167.253333H785.066667c10.24 0 17.066667 6.826667 17.066666 17.066667s-6.826667 17.066667-17.066666 17.066667z" fill="#bfbfbf" p-id="2888"></path><path d="M324.266667 426.666667c-3.413333 0-10.24 0-13.653334-3.413334l-51.2-51.2c-6.826667-6.826667-6.826667-17.066667 0-23.893333s17.066667-6.826667 23.893334 0l51.2 51.2c6.826667 6.826667 6.826667 17.066667 0 23.893333 0 3.413333-6.826667 3.413333-10.24 3.413334zM699.733333 426.666667c-3.413333 0-6.826667 0-10.24-3.413334-6.826667-6.826667-10.24-17.066667-3.413333-23.893333l34.133333-51.2c6.826667-6.826667 17.066667-10.24 23.893334-3.413333s10.24 17.066667 3.413333 23.893333l-34.133333 51.2c-3.413333 3.413333-6.826667 6.826667-13.653334 6.826667zM563.2 426.666667c-3.413333 0-6.826667 0-10.24-3.413334 0 0-20.48-13.653333-40.96-13.653333s-40.96 13.653333-40.96 13.653333c-6.826667 6.826667-17.066667 3.413333-23.893333-3.413333-6.826667-6.826667-3.413333-17.066667 3.413333-23.893333 0 0 27.306667-20.48 61.44-20.48s61.44 20.48 61.44 20.48c6.826667 6.826667 10.24 17.066667 3.413333 23.893333-3.413333 3.413333-6.826667 6.826667-13.653333 6.826667zM631.466667 614.4c-27.306667 0-51.2-20.48-71.68-37.546667-17.066667-17.066667-34.133333-30.72-54.613334-30.72-17.066667 0-30.72 13.653333-47.786666 30.72-17.066667 17.066667-37.546667 37.546667-68.266667 37.546667-44.373333 0-58.026667-13.653333-81.92-37.546667l-17.066667-17.066666c-6.826667-6.826667-6.826667-17.066667 0-23.893334s17.066667-6.826667 23.893334 0l17.066666 17.066667c23.893333 23.893333 27.306667 27.306667 54.613334 27.306667 13.653333 0 27.306667-13.653333 44.373333-27.306667 20.48-20.48 40.96-40.96 71.68-40.96 30.72 0 54.613333 20.48 75.093333 40.96 17.066667 13.653333 34.133333 27.306667 47.786667 27.306667 30.72 0 34.133333-3.413333 54.613333-27.306667 3.413333-6.826667 10.24-10.24 17.066667-17.066667s17.066667-6.826667 23.893333 0 6.826667 17.066667 0 23.893334c-6.826667 6.826667-10.24 13.653333-17.066666 17.066666-13.653333 23.893333-27.306667 37.546667-71.68 37.546667zM529.066667 648.533333h-34.133334c-10.24 0-17.066667-6.826667-17.066666-17.066666s6.826667-17.066667 17.066666-17.066667h34.133334c10.24 0 17.066667 6.826667 17.066666 17.066667s-6.826667 17.066667-17.066666 17.066666z" fill="#bfbfbf" p-id="2889"></path><path d="M631.466667 512c-47.786667 0-85.333333-37.546667-85.333334-85.333333s37.546667-85.333333 85.333334-85.333334 85.333333 37.546667 85.333333 85.333334-37.546667 85.333333-85.333333 85.333333z m0-136.533333c-27.306667 0-51.2 23.893333-51.2 51.2s23.893333 51.2 51.2 51.2 51.2-23.893333 51.2-51.2-23.893333-51.2-51.2-51.2zM392.533333 512C344.746667 512 307.2 474.453333 307.2 426.666667s37.546667-85.333333 85.333333-85.333334 85.333333 37.546667 85.333334 85.333334-37.546667 85.333333-85.333334 85.333333z m0-136.533333c-27.306667 0-51.2 23.893333-51.2 51.2s23.893333 51.2 51.2 51.2 51.2-23.893333 51.2-51.2-23.893333-51.2-51.2-51.2z" fill="#bfbfbf" p-id="2890"></path></svg>