<?xml version="1.0" standalone="no"?><!DOCTYPE svg PUBLIC "-//W3C//DTD SVG 1.1//EN" "http://www.w3.org/Graphics/SVG/1.1/DTD/svg11.dtd"><svg t="1553861152984" class="icon" style="" viewBox="0 0 1024 1024" version="1.1" xmlns="http://www.w3.org/2000/svg" p-id="3388" xmlns:xlink="http://www.w3.org/1999/xlink" width="200" height="200"><defs><style type="text/css"></style></defs><path d="M306.689473 349.006765l408.370805-0.3776c22.463618 0 40.678468-18.213827 40.678468-40.678468 0-22.463618-18.21485-40.677445-40.678468-40.677445l-408.370805 0.3776c-22.465664 0-40.679491 18.203594-40.679491 40.678468C266.009981 330.792938 284.223808 349.006765 306.689473 349.006765z" p-id="3389" fill="#bfbfbf"></path><path d="M306.689473 511.719614l408.370805-0.3776c22.463618 0 40.678468-18.213827 40.678468-40.677445 0-22.463618-18.21485-40.677445-40.678468-40.677445l-408.370805 0.3776c-22.465664 0-40.679491 18.202571-40.679491 40.677445C266.009981 493.505787 284.223808 511.719614 306.689473 511.719614z" p-id="3390" fill="#bfbfbf"></path><path d="M877.157095 624.190175l-0.337691-482.536968c-1.905396-43.141566-37.141922-77.602426-80.721463-77.751828l-573.366649 0.327458c-43.220361 1.917676-77.763085 37.302581-77.763085 80.999802l0 43.220361-0.335644 0 0.277316 645.76761 0.058328 0 0 43.220361c0 44.928259 36.428677 81.354889 81.357959 81.354889l40.677445 0 0 0.229221 120.088052-0.217964c22.465664 0 40.679491-18.213827 40.679491-40.677445 0-22.465664-18.213827-40.679491-40.679491-40.679491l-104.773252 0.189312c-39.148625-3.783163-53.509704-17.011442-56.051597-58.137095l-0.278339-623.272269 0.23843 32.224935c-0.972141-69.328995 14.937201-81.882915 80.204693-82.804914l-9.414417-0.099261 419.393859-0.23843c60.562331 1.429559 78.277808 12.652158 79.114872 70.174246l0 3.744277c0 2.99931 0 5.998621-0.081864 9.245572l0.081864-4.080945 0.25685 367.961466-160.131047 0.217964 0 0.11768-43.220361 0c-44.928259 0-81.354889 36.418444-81.354889 81.357959l0 40.677445-0.278339 0 0.257873 195.506742c-2.62171 12.93152 1.033539 26.874067 11.062963 36.903491 4.031826 4.030803 8.721639 7.021927 13.68672 9.006118 4.90573 2.087545 10.287297 3.25002 15.927761 3.25002 14.20349 0 26.656103-7.290033 33.924647-18.304901l271.679609-272.363178c3.01773-1.826602 5.838985-3.932566 8.303106-6.463202 7.704472-7.398504 12.532431-17.749246 12.532431-29.278837C878.171192 629.950366 877.793592 627.031896 877.157095 624.190175zM592.290139 819.2395l-0.078795-67.76129c0.556679-61.910025 14.896268-77.462233 82.549088-77.462233l-82.071204 0.545422-0.497327 73.223698-0.099261-73.79982 145.274688-0.197498L592.290139 819.2395z" p-id="3391" fill="#bfbfbf"></path></svg>