<?xml version="1.0" standalone="no"?><!DOCTYPE svg PUBLIC "-//W3C//DTD SVG 1.1//EN" "http://www.w3.org/Graphics/SVG/1.1/DTD/svg11.dtd"><svg t="1546864403462" class="icon" style="" viewBox="0 0 1024 1024" version="1.1" xmlns="http://www.w3.org/2000/svg" p-id="2986" xmlns:xlink="http://www.w3.org/1999/xlink" width="200" height="200"><defs><style type="text/css"></style></defs><path d="M814.502 270.913l30.18-30.18 30.58 30.58 37.825-37.825-86.377-86.378-37.825 37.825 30.58 30.58-30.18 30.18c-66.856-61.301-154.087-100.642-250.374-106.858V66.548h-53.499v72.289c-214.046 13.792-383.407 191.652-383.407 409.199 0 226.533 183.624 410.157 410.157 410.157s410.157-183.624 410.157-410.157c-0.001-106.858-40.892-204.139-107.817-277.123zM529.994 598.26v74.606h-35.666V598.26c-20.724-7.385-35.666-26.958-35.666-50.225 0-23.267 14.942-42.842 35.666-50.225v-235.1h35.666v235.102c20.724 7.383 35.666 26.958 35.666 50.225 0 23.265-14.942 42.839-35.666 50.223z" p-id="2987" fill="#bfbfbf"></path></svg>