<?xml version="1.0" standalone="no"?><!DOCTYPE svg PUBLIC "-//W3C//DTD SVG 1.1//EN" "http://www.w3.org/Graphics/SVG/1.1/DTD/svg11.dtd"><svg t="1545876582522" class="icon" style="" viewBox="0 0 1028 1024" version="1.1" xmlns="http://www.w3.org/2000/svg" p-id="1270" xmlns:xlink="http://www.w3.org/1999/xlink" width="200.78125" height="200"><defs><style type="text/css"></style></defs><path d="M20.746854 180.67456c-27.09504 27.136-21.31968 65.35168 0.26624 86.87616 0.86016 0.83968 87.49056 83.57888 209.3056 205.4144 3.13344 3.13344 7.22944 4.66944 11.32544 4.66944s8.192-1.57696 11.32544-4.66944c6.2464-6.2464 6.2464-16.384 0-22.6304-18.37056-18.37056-35.84-35.7376-52.40832-52.18304l50.85184-50.85184c6.2464-6.2464 6.2464-16.384 0-22.6304s-16.384-6.2464-22.6304 0l-50.97472 50.97472c-28.50816-28.16-53.63712-52.736-74.07616-72.66304l115.67104-115.67104c6.2464-6.2464 6.2464-16.384 0-22.6304s-16.384-6.2464-22.6304 0l-116.03968 116.03968c-23.552-22.81472-37.13024-35.77856-37.33504-36.00384-6.7584-6.7584-15.62624-25.76384 0-41.3696l160.01024-160.01024c6.18496-6.26688 22.6304-18.71872 40.67328-0.77824 0.79872 0.90112 81.59232 92.672 204.92288 216.00256 6.2464 6.2464 16.384 6.2464 22.6304 0s6.2464-16.384 0-22.6304c-122.55232-122.53184-202.752-213.6064-204.22656-215.26528-29.81888-29.75744-65.80224-20.82816-86.6304 0l-160.03072 160.01024zM699.392614 772.66944c-6.2464-6.2464-16.384-6.2464-22.6304 0l-50.91328 50.87232c-15.52384-15.70816-31.80544-32.1536-48.96768-49.31584-6.2464-6.2464-16.384-6.2464-22.6304 0s-6.2464 16.384 0 22.6304c118.53824 118.49728 201.3184 207.01184 202.50624 208.2816 10.97728 11.01824 26.0096 17.05984 42.33216 17.05984l0 0c16.7936 0 33.792-6.5536 44.31872-17.12128l159.92832-161.83296c20.13184-20.13184 21.27872-54.272 2.49856-73.1136l-214.58944-214.56896c-6.2464-6.2464-16.384-6.2464-22.6304 0s-6.2464 16.384 0 22.6304l214.58944 214.56896c6.41024 6.41024 5.18144 20.23424-2.51904 27.93472l-159.96928 161.83296c-3.6864 3.70688-12.04224 7.68-21.62688 7.68 0 0 0 0 0 0-5.50912 0-13.37344-1.35168-19.33312-7.33184-0.32768-0.34816-13.7216-14.66368-36.98688-39.0144l116.61312-116.61312c6.2464-6.2464 6.2464-16.384 0-22.6304s-16.384-6.2464-22.6304 0l-116.1216 116.1216c-19.968-20.76672-44.4416-46.01856-72.31488-74.42432l51.07712-51.07712c6.2464-6.20544 6.2464-16.32256 0-22.58944zM4.608614 1018.53184c3.072 3.13344 7.20896 4.79232 11.44832 4.79232 1.536 0 3.072-0.22528 4.56704-0.67584l320-95.3344c2.60096-0.77824 4.89472-2.1504 6.77888-4.05504l546.87744-550.56384c0.77824-0.77824 1.14688-1.76128 1.72032-2.62144l116.98176-117.00224c9.40032-9.44128 14.62272-21.95456 14.62272-35.28704 0-13.312-5.2224-25.82528-14.62272-35.20512l-167.5264-167.48544c-18.82112-18.82112-51.67104-18.82112-70.49216 0l-119.64416 119.64416c-0.77824 0.75776-1.18784 1.76128-1.76128 2.6624l-547.71712 547.7376c-1.80224 1.78176-3.13344 3.97312-3.91168 6.36928l-101.13024 310.8864c-1.86368 5.67296-0.4096 11.83744 3.74784 16.13824zM667.587174 168.67328l33.23904 33.23904-496.7424 498.0736-55.25504-12.53376 518.7584-518.77888zM224.072294 725.31968l499.42528-500.736 77.94688 77.94688-503.93088 497.47968-73.44128 0 0-74.69056zM860.365414 361.472l-519.80288 523.32544-18.47296-64.06144 501.98528-495.57504 36.29056 36.31104zM127.836774 715.48928l64.22528 14.58176 0 85.9136c0 8.82688 7.168 15.99488 15.99488 15.99488l83.968 0 20.29568 70.41024-271.60576 80.93696 87.1424-267.83744zM797.676134 37.72416c6.7584-6.7584 18.49344-6.7584 25.25184 0l167.5264 167.5264c3.35872 3.35872 5.2224 7.84384 5.2224 12.61568 0 4.73088-1.86368 9.25696-5.24288 12.63616l-107.86816 107.90912-192.73728-192.73728 107.86816-107.9296z" p-id="1271"></path></svg>