<?xml version="1.0" standalone="no"?><!DOCTYPE svg PUBLIC "-//W3C//DTD SVG 1.1//EN" "http://www.w3.org/Graphics/SVG/1.1/DTD/svg11.dtd"><svg t="1553934943780" class="icon" style="" viewBox="0 0 1024 1024" version="1.1" xmlns="http://www.w3.org/2000/svg" p-id="4263" xmlns:xlink="http://www.w3.org/1999/xlink" width="200" height="200"><defs><style type="text/css"></style></defs><path d="M512 256s-97.2-4.8-144-96c16.8 113.6 108 192 144 192s127.2-78.8 144-192c-46.8 91.2-144 96-144 96z" fill="#8a8a8a" p-id="4264"></path><path d="M928 448C928 218.4 741.6 32 512 32S96 218.4 96 448c0 186.8 122.8 344.4 292.4 397.2-42 35.2-68.4 88-68.4 146.8h64c0-70.8 57.2-128 128-128s128 57.2 128 128h64c0-58.8-26.4-111.6-68.4-146.8 169.6-52.8 292.4-210.4 292.4-397.2z m-416 352c-194.4 0-352-157.6-352-352s157.6-352 352-352 352 157.6 352 352-157.6 352-352 352z" fill="#8a8a8a" p-id="4265"></path></svg>